<mxfile host="app.diagrams.net" agent="Mozilla/5.0 (Windows NT 10.0; Win64; x64) AppleWebKit/537.36 (KHTML, like Gecko) Chrome/127.0.0.0 Safari/537.36" version="24.7.7">
  <diagram name="Page-1" id="wNzYuIvie42oucfj9oar">
    <mxGraphModel dx="1502" dy="556" grid="1" gridSize="10" guides="1" tooltips="1" connect="1" arrows="1" fold="1" page="1" pageScale="1" pageWidth="827" pageHeight="1169" math="0" shadow="0">
      <root>
        <mxCell id="0" />
        <mxCell id="1" parent="0" />
        <mxCell id="yegDOAvo7ER2bUGg0afE-20" value="" style="rounded=0;whiteSpace=wrap;html=1;" vertex="1" parent="1">
          <mxGeometry x="570" y="480" width="140" height="90" as="geometry" />
        </mxCell>
        <mxCell id="yegDOAvo7ER2bUGg0afE-1" value="" style="whiteSpace=wrap;html=1;aspect=fixed;" vertex="1" parent="1">
          <mxGeometry x="39" y="20" width="750" height="750" as="geometry" />
        </mxCell>
        <mxCell id="yegDOAvo7ER2bUGg0afE-2" value="&lt;b&gt;&lt;font style=&quot;font-size: 26px;&quot;&gt;Header&lt;/font&gt;&lt;/b&gt;" style="rounded=0;whiteSpace=wrap;html=1;" vertex="1" parent="1">
          <mxGeometry x="114" y="20" width="600" height="60" as="geometry" />
        </mxCell>
        <mxCell id="yegDOAvo7ER2bUGg0afE-3" value="&lt;b&gt;&lt;font style=&quot;font-size: 26px;&quot;&gt;Footer&lt;/font&gt;&lt;/b&gt;" style="rounded=0;whiteSpace=wrap;html=1;" vertex="1" parent="1">
          <mxGeometry x="114" y="710" width="600" height="60" as="geometry" />
        </mxCell>
        <mxCell id="yegDOAvo7ER2bUGg0afE-5" value="" style="rounded=0;whiteSpace=wrap;html=1;labelBackgroundColor=none;labelBorderColor=none;textShadow=0;fontColor=none;noLabel=1;" vertex="1" parent="1">
          <mxGeometry x="130" y="200" width="590" height="380" as="geometry" />
        </mxCell>
        <mxCell id="yegDOAvo7ER2bUGg0afE-8" value="" style="rounded=0;whiteSpace=wrap;html=1;rotation=0;" vertex="1" parent="1">
          <mxGeometry x="140" y="480" width="570" height="90" as="geometry" />
        </mxCell>
        <mxCell id="yegDOAvo7ER2bUGg0afE-9" value="&lt;span style=&quot;background-color: rgb(153, 153, 153);&quot;&gt;&lt;font color=&quot;#ffffff&quot;&gt;صورة مشروع&amp;nbsp;&lt;/font&gt;&lt;/span&gt;&lt;div&gt;&lt;span style=&quot;background-color: rgb(153, 153, 153);&quot;&gt;&lt;font color=&quot;#ffffff&quot;&gt;تحولنا الى صفحة المشروع&lt;/font&gt;&lt;/span&gt;&lt;/div&gt;" style="rounded=1;whiteSpace=wrap;html=1;fontStyle=1;fillColor=#808080;" vertex="1" parent="1">
          <mxGeometry x="180" y="485" width="80" height="80" as="geometry" />
        </mxCell>
        <mxCell id="yegDOAvo7ER2bUGg0afE-14" value="&lt;span style=&quot;background-color: rgb(153, 153, 153);&quot;&gt;&lt;font color=&quot;#ffffff&quot;&gt;صورة مشروع&amp;nbsp;&lt;/font&gt;&lt;/span&gt;&lt;div&gt;&lt;span style=&quot;background-color: rgb(153, 153, 153);&quot;&gt;&lt;font color=&quot;#ffffff&quot;&gt;تحولنا الى صفحة المشروع&lt;/font&gt;&lt;/span&gt;&lt;/div&gt;" style="rounded=1;whiteSpace=wrap;html=1;fontStyle=1;fillColor=#808080;" vertex="1" parent="1">
          <mxGeometry x="450" y="485" width="80" height="80" as="geometry" />
        </mxCell>
        <mxCell id="yegDOAvo7ER2bUGg0afE-15" value="&lt;span style=&quot;background-color: rgb(153, 153, 153);&quot;&gt;&lt;font color=&quot;#ffffff&quot;&gt;صورة مشروع&amp;nbsp;&lt;/font&gt;&lt;/span&gt;&lt;div&gt;&lt;span style=&quot;background-color: rgb(153, 153, 153);&quot;&gt;&lt;font color=&quot;#ffffff&quot;&gt;تحولنا الى صفحة المشروع&lt;/font&gt;&lt;/span&gt;&lt;/div&gt;" style="rounded=1;whiteSpace=wrap;html=1;fontStyle=1;fillColor=#808080;" vertex="1" parent="1">
          <mxGeometry x="360" y="485" width="80" height="80" as="geometry" />
        </mxCell>
        <mxCell id="yegDOAvo7ER2bUGg0afE-16" value="&lt;span style=&quot;background-color: rgb(153, 153, 153);&quot;&gt;&lt;font color=&quot;#ffffff&quot;&gt;صورة مشروع&amp;nbsp;&lt;/font&gt;&lt;/span&gt;&lt;div&gt;&lt;span style=&quot;background-color: rgb(153, 153, 153);&quot;&gt;&lt;font color=&quot;#ffffff&quot;&gt;تحولنا الى صفحة المشروع&lt;/font&gt;&lt;/span&gt;&lt;/div&gt;" style="rounded=1;whiteSpace=wrap;html=1;fontStyle=1;fillColor=#808080;" vertex="1" parent="1">
          <mxGeometry x="270" y="485" width="80" height="80" as="geometry" />
        </mxCell>
        <mxCell id="yegDOAvo7ER2bUGg0afE-25" value="اسم المشروع" style="text;html=1;align=center;verticalAlign=middle;whiteSpace=wrap;rounded=0;spacing=0;fontStyle=1;fontColor=#07b00a;fontSize=9;fontFamily=Tahoma;" vertex="1" parent="1">
          <mxGeometry x="640" y="505" width="60" height="30" as="geometry" />
        </mxCell>
        <mxCell id="yegDOAvo7ER2bUGg0afE-22" value="اسم المشروع" style="text;html=1;align=center;verticalAlign=middle;whiteSpace=wrap;rounded=0;spacing=0;fontStyle=1;fontColor=#00AB00;fontSize=9;fontFamily=Tahoma;" vertex="1" parent="1">
          <mxGeometry x="640" y="485" width="60" height="30" as="geometry" />
        </mxCell>
        <mxCell id="yegDOAvo7ER2bUGg0afE-26" value="اسم المشروع" style="text;html=1;align=center;verticalAlign=middle;whiteSpace=wrap;rounded=0;spacing=0;fontStyle=1;fontColor=#00AB00;fontFamily=Tahoma;fontSize=9;" vertex="1" parent="1">
          <mxGeometry x="640" y="540" width="60" height="30" as="geometry" />
        </mxCell>
        <mxCell id="yegDOAvo7ER2bUGg0afE-27" value="اسم المشروع" style="text;html=1;align=center;verticalAlign=middle;whiteSpace=wrap;rounded=0;spacing=0;fontStyle=1;fontColor=#00AB00;fontFamily=Tahoma;fontSize=9;" vertex="1" parent="1">
          <mxGeometry x="640" y="521" width="60" height="30" as="geometry" />
        </mxCell>
        <mxCell id="yegDOAvo7ER2bUGg0afE-28" value="" style="rounded=0;whiteSpace=wrap;html=1;" vertex="1" parent="1">
          <mxGeometry x="570" y="1420" width="140" height="90" as="geometry" />
        </mxCell>
        <mxCell id="yegDOAvo7ER2bUGg0afE-29" value="" style="whiteSpace=wrap;html=1;aspect=fixed;" vertex="1" parent="1">
          <mxGeometry x="39" y="960" width="750" height="750" as="geometry" />
        </mxCell>
        <mxCell id="yegDOAvo7ER2bUGg0afE-30" value="&lt;b&gt;&lt;font style=&quot;font-size: 26px;&quot;&gt;Header&lt;/font&gt;&lt;/b&gt;" style="rounded=0;whiteSpace=wrap;html=1;" vertex="1" parent="1">
          <mxGeometry x="114" y="960" width="600" height="60" as="geometry" />
        </mxCell>
        <mxCell id="yegDOAvo7ER2bUGg0afE-31" value="&lt;b&gt;&lt;font style=&quot;font-size: 26px;&quot;&gt;Footer&lt;/font&gt;&lt;/b&gt;" style="rounded=0;whiteSpace=wrap;html=1;" vertex="1" parent="1">
          <mxGeometry x="114" y="1650" width="600" height="60" as="geometry" />
        </mxCell>
        <mxCell id="yegDOAvo7ER2bUGg0afE-32" value="" style="rounded=0;whiteSpace=wrap;html=1;labelBackgroundColor=#999999;labelBorderColor=default;textShadow=1;" vertex="1" parent="1">
          <mxGeometry x="130" y="1140" width="590" height="380" as="geometry" />
        </mxCell>
        <mxCell id="yegDOAvo7ER2bUGg0afE-33" value="" style="rounded=0;whiteSpace=wrap;html=1;rotation=0;" vertex="1" parent="1">
          <mxGeometry x="140" y="1420" width="570" height="90" as="geometry" />
        </mxCell>
        <mxCell id="yegDOAvo7ER2bUGg0afE-34" value="&lt;span style=&quot;color: rgb(255, 255, 255); background-color: rgb(153, 153, 153);&quot;&gt;صوره&lt;/span&gt;" style="rounded=1;whiteSpace=wrap;html=1;fontStyle=1;fillColor=#808080;" vertex="1" parent="1">
          <mxGeometry x="239" y="1425" width="80" height="80" as="geometry" />
        </mxCell>
        <mxCell id="yegDOAvo7ER2bUGg0afE-35" value="&lt;font color=&quot;#ffffff&quot;&gt;&lt;span style=&quot;background-color: rgb(153, 153, 153);&quot;&gt;صوره&lt;/span&gt;&lt;/font&gt;" style="rounded=1;whiteSpace=wrap;html=1;fontStyle=1;fillColor=#808080;" vertex="1" parent="1">
          <mxGeometry x="509" y="1425" width="80" height="80" as="geometry" />
        </mxCell>
        <mxCell id="yegDOAvo7ER2bUGg0afE-36" value="&lt;span style=&quot;color: rgb(255, 255, 255); background-color: rgb(153, 153, 153);&quot;&gt;صوره&lt;/span&gt;" style="rounded=1;whiteSpace=wrap;html=1;fontStyle=1;fillColor=#808080;" vertex="1" parent="1">
          <mxGeometry x="419" y="1425" width="80" height="80" as="geometry" />
        </mxCell>
        <mxCell id="yegDOAvo7ER2bUGg0afE-37" value="&lt;span style=&quot;color: rgb(255, 255, 255); background-color: rgb(153, 153, 153);&quot;&gt;صوره&lt;/span&gt;" style="rounded=1;whiteSpace=wrap;html=1;fontStyle=1;fillColor=#808080;" vertex="1" parent="1">
          <mxGeometry x="329" y="1425" width="80" height="80" as="geometry" />
        </mxCell>
        <mxCell id="yegDOAvo7ER2bUGg0afE-42" value="&lt;b&gt;&lt;font face=&quot;Tahoma&quot; style=&quot;font-size: 22px;&quot;&gt;صوره ثابته&lt;/font&gt;&lt;/b&gt;" style="text;html=1;align=center;verticalAlign=middle;whiteSpace=wrap;rounded=0;labelBackgroundColor=none;labelBorderColor=none;" vertex="1" parent="1">
          <mxGeometry x="140" y="200" width="580" height="370" as="geometry" />
        </mxCell>
        <mxCell id="yegDOAvo7ER2bUGg0afE-43" value="&lt;b&gt;&lt;font face=&quot;Tahoma&quot; style=&quot;font-size: 22px;&quot;&gt;صوره ثابته&lt;/font&gt;&lt;/b&gt;" style="text;html=1;align=center;verticalAlign=middle;whiteSpace=wrap;rounded=0;labelBackgroundColor=none;labelBorderColor=none;" vertex="1" parent="1">
          <mxGeometry x="140" y="1140" width="580" height="280" as="geometry" />
        </mxCell>
        <mxCell id="yegDOAvo7ER2bUGg0afE-45" value="&lt;h1 style=&quot;margin-top: 0px; font-size: 15px;&quot;&gt;&lt;font style=&quot;font-size: 15px;&quot; face=&quot;Tahoma&quot;&gt;&lt;span style=&quot;background-color: initial;&quot;&gt;اسم المشروع&lt;br&gt;&lt;br&gt;&lt;/span&gt;&lt;font style=&quot;font-size: 15px;&quot; color=&quot;#252525&quot;&gt;&lt;span style=&quot;font-weight: 400; background-color: rgb(255, 255, 255);&quot;&gt;,وصف المشروع&lt;br&gt;&lt;/span&gt;&lt;/font&gt;&lt;/font&gt;..............&lt;br&gt;.................&lt;/h1&gt;" style="text;html=1;whiteSpace=wrap;overflow=hidden;rounded=0;align=right;" vertex="1" parent="1">
          <mxGeometry x="520" y="1280" width="180" height="120" as="geometry" />
        </mxCell>
        <mxCell id="yegDOAvo7ER2bUGg0afE-46" value="&lt;b&gt;عند الضغط على صوره تفتح فى نافذه&lt;/b&gt;" style="whiteSpace=wrap;html=1;rounded=1;arcSize=50;align=center;verticalAlign=middle;strokeWidth=1;autosize=1;spacing=4;treeFolding=1;treeMoving=1;newEdgeStyle={&quot;edgeStyle&quot;:&quot;entityRelationEdgeStyle&quot;,&quot;startArrow&quot;:&quot;none&quot;,&quot;endArrow&quot;:&quot;none&quot;,&quot;segment&quot;:10,&quot;curved&quot;:1,&quot;sourcePerimeterSpacing&quot;:0,&quot;targetPerimeterSpacing&quot;:0};" vertex="1" parent="1">
          <mxGeometry x="44" y="1370" width="190" height="30" as="geometry" />
        </mxCell>
        <mxCell id="yegDOAvo7ER2bUGg0afE-47" value="" style="edgeStyle=entityRelationEdgeStyle;startArrow=none;endArrow=none;segment=10;curved=1;sourcePerimeterSpacing=0;targetPerimeterSpacing=0;rounded=0;" edge="1" target="yegDOAvo7ER2bUGg0afE-46" parent="1" source="yegDOAvo7ER2bUGg0afE-34">
          <mxGeometry relative="1" as="geometry">
            <mxPoint x="290" y="1400" as="sourcePoint" />
          </mxGeometry>
        </mxCell>
        <mxCell id="yegDOAvo7ER2bUGg0afE-48" value="" style="whiteSpace=wrap;html=1;aspect=fixed;" vertex="1" parent="1">
          <mxGeometry x="39" y="1840" width="750" height="750" as="geometry" />
        </mxCell>
        <mxCell id="yegDOAvo7ER2bUGg0afE-49" value="&lt;b&gt;&lt;font style=&quot;font-size: 26px;&quot;&gt;Header&lt;/font&gt;&lt;/b&gt;" style="rounded=0;whiteSpace=wrap;html=1;" vertex="1" parent="1">
          <mxGeometry x="114" y="1840" width="600" height="60" as="geometry" />
        </mxCell>
        <mxCell id="yegDOAvo7ER2bUGg0afE-50" value="&lt;b&gt;&lt;font style=&quot;font-size: 26px;&quot;&gt;Footer&lt;/font&gt;&lt;/b&gt;" style="rounded=0;whiteSpace=wrap;html=1;" vertex="1" parent="1">
          <mxGeometry x="114" y="2530" width="600" height="60" as="geometry" />
        </mxCell>
        <mxCell id="yegDOAvo7ER2bUGg0afE-52" value="" style="rounded=1;whiteSpace=wrap;html=1;arcSize=1;" vertex="1" parent="1">
          <mxGeometry x="140" y="2035" width="585" height="350" as="geometry" />
        </mxCell>
        <mxCell id="yegDOAvo7ER2bUGg0afE-54" value="" style="html=1;shadow=0;dashed=0;align=center;verticalAlign=middle;shape=mxgraph.arrows2.arrow;dy=0.75;dx=60;notch=0;whiteSpace=wrap;rotation=-180;" vertex="1" parent="1">
          <mxGeometry x="150" y="2200" width="20" height="30" as="geometry" />
        </mxCell>
        <mxCell id="yegDOAvo7ER2bUGg0afE-55" value="" style="html=1;shadow=0;dashed=0;align=center;verticalAlign=middle;shape=mxgraph.arrows2.arrow;dy=0.75;dx=60;notch=0;whiteSpace=wrap;rotation=0;" vertex="1" parent="1">
          <mxGeometry x="690" y="2200" width="20" height="30" as="geometry" />
        </mxCell>
        <mxCell id="yegDOAvo7ER2bUGg0afE-56" value="&lt;font face=&quot;Tahoma&quot; style=&quot;font-size: 27px;&quot;&gt;صوره&lt;/font&gt;" style="rounded=1;whiteSpace=wrap;html=1;arcSize=2;" vertex="1" parent="1">
          <mxGeometry x="202.5" y="2055" width="460" height="310" as="geometry" />
        </mxCell>
      </root>
    </mxGraphModel>
  </diagram>
</mxfile>
